<?xml version="1.0" standalone="no"?><!DOCTYPE svg PUBLIC "-//W3C//DTD SVG 1.1//EN" "http://www.w3.org/Graphics/SVG/1.1/DTD/svg11.dtd"><svg t="1684855517909" class="icon" viewBox="0 0 1024 1024" version="1.1" xmlns="http://www.w3.org/2000/svg" p-id="3934" xmlns:xlink="http://www.w3.org/1999/xlink" width="128" height="128"><path d="M758.1 555.9c-2.6-1.1-5.1-2.5-7.4-4H605.9c-16.2 42.9-57.4 73.4-105.9 73.4-62.6 0-113.3-50.7-113.3-113.3 0-62.6 50.7-113.3 113.3-113.3 48.5 0 89.8 30.5 105.9 73.4h144.8c2.3-1.5 4.7-2.8 7.2-3.9 7.5-3.1 11.8-11 9.9-18.9-6.9-29.7-18.6-57.5-34.3-82.7-4.3-6.8-12.8-9.4-20.3-6.3-17.4 7.2-38.2 3.7-52.1-10.7-13.5-14-16.6-34-9.6-50.9 3.1-7.5 0.6-16.1-6.3-20.4-25.2-15.6-53.2-27.4-83.1-34.3-7.7-1.8-15.2 2.5-18.3 9.9-7.2 17.5-24.6 29.7-44.7 29.4-19.4-0.3-35.9-12.3-43-29.2-3.1-7.5-11-11.8-18.9-9.9-29.7 6.9-57.5 18.6-82.7 34.3-6.8 4.3-9.4 12.8-6.3 20.3 7.2 17.4 3.7 38.2-10.7 52.1-14 13.5-34 16.6-50.9 9.6-7.5-3.1-16.1-0.6-20.4 6.3-15.8 25.3-27.5 53.3-34.4 83.2-1.8 7.7 2.5 15.2 9.9 18.3 17.5 7.2 29.7 24.6 29.4 44.7-0.3 19.4-12.3 35.9-29.2 43-7.5 3.1-11.8 11-9.9 18.9 6.9 29.7 18.6 57.5 34.3 82.7 4.3 6.8 12.8 9.4 20.3 6.3 17.4-7.2 38.2-3.7 52.1 10.7 13.5 14 16.6 34 9.6 50.9-3.1 7.5-0.6 16.1 6.3 20.4 25.3 15.8 53.3 27.5 83.2 34.4 7.7 1.8 15.2-2.5 18.3-9.9 7.2-17.5 24.6-29.7 44.7-29.4 19.4 0.3 35.9 12.3 43 29.2 3.1 7.5 11 11.8 18.9 9.9 29.7-6.9 57.5-18.6 82.7-34.3 6.8-4.3 9.4-12.8 6.3-20.3-7.2-17.4-3.7-38.2 10.7-52.1 14-13.5 34-16.6 50.9-9.6 7.5 3.1 16.1 0.6 20.4-6.3 15.8-25.3 27.5-53.3 34.4-83.2 1.6-7.9-2.7-15.4-10-18.4z" fill="#B6F5FF" p-id="3935"></path><path d="M499.9 891.6c-43.8 0-86.8-7.3-127.7-21.8-39.6-14-76.4-34.3-109.5-60.3-32.8-25.8-61-56.6-83.8-91.4-23.2-35.4-40.3-74.2-50.7-115.1l13.6-3.5c41.7 163.7 189 278.1 358.1 278.1 169.2 0 316.4-114.3 358.1-278.1l13.6 3.5c-10.4 40.9-27.5 79.7-50.7 115.1-22.8 34.8-51 65.6-83.8 91.4-33.1 26.1-69.9 46.4-109.5 60.3-40.9 14.4-83.9 21.8-127.7 21.8zM858.1 416.5c-41.7-163.7-189-278.1-358.1-278.1-169.2 0-316.4 114.3-358.1 278.1l-13.6-3.5c10.4-40.9 27.5-79.7 50.7-115.1 22.8-34.8 51-65.6 83.8-91.4 33.1-26.1 69.9-46.4 109.5-60.3 40.9-14.4 83.9-21.8 127.7-21.8s86.7 7.3 127.7 21.8c39.6 14 76.4 34.3 109.5 60.3 32.8 25.8 61 56.6 83.8 91.4 23.2 35.4 40.3 74.2 50.7 115.1l-13.6 3.5z" fill="#49A3FE" p-id="3936"></path><path d="M499.9 224.4c-5.9 0-10.7-4.8-10.7-10.7 0-5.9 4.8-10.7 10.7-10.7 5.9 0 10.7 4.8 10.7 10.7 0.1 5.9-4.7 10.7-10.7 10.7z m0-14c-1.8 0-3.3 1.5-3.3 3.3s1.5 3.3 3.3 3.3c1.8 0 3.3-1.5 3.3-3.3s-1.5-3.3-3.3-3.3zM291.8 310.6c-2.7 0-5.5-1-7.6-3.1-4.2-4.2-4.2-11 0-15.2 4.2-4.2 11-4.2 15.2 0 4.2 4.2 4.2 11 0 15.2-2.1 2.1-4.8 3.1-7.6 3.1z m0-14c-0.8 0-1.7 0.3-2.3 1-1.3 1.3-1.3 3.4 0 4.6 1.3 1.3 3.4 1.3 4.6 0 1.3-1.3 1.3-3.4 0-4.6-0.6-0.7-1.4-1-2.3-1zM205.6 518.7c-5.9 0-10.7-4.8-10.7-10.7 0-5.9 4.8-10.7 10.7-10.7 5.9 0 10.7 4.8 10.7 10.7 0.1 5.9-4.7 10.7-10.7 10.7z m0-14c-1.8 0-3.3 1.5-3.3 3.3s1.5 3.3 3.3 3.3 3.3-1.5 3.3-3.3-1.4-3.3-3.3-3.3zM291.8 726.8c-2.7 0-5.5-1-7.6-3.1-2-2-3.1-4.7-3.1-7.6s1.1-5.6 3.1-7.6c4.2-4.2 11-4.2 15.2 0 2 2 3.1 4.7 3.1 7.6 0 2.9-1.1 5.6-3.1 7.6-2.1 2.1-4.8 3.1-7.6 3.1z m0-14c-0.8 0-1.7 0.3-2.3 1-0.6 0.6-1 1.5-1 2.3 0 0.9 0.3 1.7 1 2.3 1.3 1.3 3.4 1.3 4.6 0 0.6-0.6 1-1.5 1-2.3 0-0.9-0.3-1.7-1-2.3-0.6-0.7-1.4-1-2.3-1zM499.9 813c-5.9 0-10.7-4.8-10.7-10.7 0-5.9 4.8-10.7 10.7-10.7 5.9 0 10.7 4.8 10.7 10.7 0.1 5.9-4.7 10.7-10.7 10.7z m0-14c-1.8 0-3.3 1.5-3.3 3.3s1.5 3.3 3.3 3.3c1.8 0 3.3-1.5 3.3-3.3s-1.5-3.3-3.3-3.3zM708 726.8c-2.9 0-5.6-1.1-7.6-3.1-4.2-4.2-4.2-11 0-15.2 4.2-4.2 11-4.2 15.2 0 2 2 3.1 4.7 3.1 7.6 0 2.9-1.1 5.6-3.1 7.6s-4.7 3.1-7.6 3.1z m-2.3-8.4c1.3 1.3 3.4 1.3 4.6 0 1.3-1.3 1.3-3.4 0-4.6l-4.6 4.6z m2.3-5.6c-0.9 0-1.7 0.4-2.3 1-0.6 0.6-1 1.5-1 2.3 0 0.9 0.3 1.7 1 2.3l4.6-4.6c-0.6-0.6-1.4-1-2.3-1zM708 310.6c-2.9 0-5.6-1.1-7.6-3.1-4.2-4.2-4.2-11 0-15.2 2-2 4.7-3.1 7.6-3.1 2.9 0 5.6 1.1 7.6 3.1 4.2 4.2 4.2 11 0 15.2-2 2-4.7 3.1-7.6 3.1z m-2.3-8.4c1.2 1.2 3.4 1.2 4.6 0 1.3-1.3 1.3-3.4 0-4.6-1.2-1.2-3.4-1.2-4.6 0-1.3 1.3-1.3 3.3 0 4.6z" fill="#49A3FE" p-id="3937"></path><path d="M852 558.9h-29.1v-14h25.6l68-36.3-67.7-29.5h-25.9v-14h28.8l73 31.8 0.5 0.3c3.7 2.4 5.9 6.3 6.1 10.7 0.2 4.3-1.6 8.4-5 11.2l-0.5 0.4-73.8 39.4zM395.5 544.9h208.9v14H395.5zM392.5 465.1h214.8v14H392.5z" fill="#0F13AE" p-id="3938"></path><path d="M758.2 544.9h64.7v14h-64.7z" fill="#0F13AE" p-id="3939"></path><path d="M815.9 472.1h14v79.8h-14zM143.7 558.9H96.2v-93.8h47.5v14h-33.5v65.8h33.5zM143.7 544.9h98v14h-98zM143.7 465.1h111v14h-111z" fill="#0F13AE" p-id="3940"></path><path d="M136.7 472.1h14v79.8h-14zM441.3 783.4c-1.7 0-3.3-0.2-5-0.6-30.2-7-58.9-18.9-85.3-35.3-9.7-6-13.5-18.2-9-29 6.1-14.9 2.9-31.9-8.2-43.3-11.5-11.9-29-15.5-44.4-9.1-10.7 4.4-22.9 0.6-28.9-9.1-16.4-26.2-28.2-54.8-35.2-84.8-2.5-10.7 3-21.7 13.1-26.5 0.3-0.2 0.6-0.3 1-0.5 14.8-6.2 24.6-20.6 24.8-36.6 0.2-12-4.9-23.3-14.1-31.2-3.4-2.9-7.1-5.2-11-6.8-10.6-4.4-16.5-15.4-14-26.3 7-30.2 18.9-58.9 35.3-85.3 6-9.7 18.2-13.5 29-9 14.9 6.1 31.9 2.9 43.3-8.2 11.9-11.5 15.5-29 9.1-44.4-4.4-10.7-0.6-22.9 9.1-28.9 26.2-16.3 54.7-28.2 84.8-35.2 11.1-2.6 22.5 3.3 26.9 14.1 6.2 14.8 20.6 24.6 36.6 24.9h0.7c16.5 0 31.1-9.8 37.4-25 4.4-10.6 15.4-16.5 26.3-14 30.2 7 58.9 18.9 85.3 35.3 9.7 6 13.5 18.2 9 29-6.1 14.8-2.9 31.9 8.2 43.3 11.5 11.9 29 15.5 44.4 9.1 10.7-4.4 22.9-0.6 28.9 9.1 16.4 26.2 28.2 54.7 35.2 84.8 2.6 11.1-3.3 22.5-14.1 26.9-3.8 1.6-7.4 3.9-10.8 6.8l-9.1-10.6c4.5-3.9 9.4-6.9 14.5-9.1 4.4-1.8 6.9-6.4 5.8-10.8-6.6-28.5-17.9-55.6-33.4-80.5-2.4-3.9-7.3-5.3-11.7-3.5-20.8 8.6-44.2 3.8-59.8-12.3-15-15.5-19.3-38.4-11.1-58.4 1.8-4.4 0.3-9.4-3.5-11.8-25.1-15.6-52.3-26.9-81-33.5-4.2-1-8.4 1.4-10.2 5.7-8.5 20.6-28.2 33.7-50.3 33.7h-0.9c-21.6-0.4-41-13.5-49.3-33.5-1.8-4.4-6.4-6.9-10.8-5.8-28.5 6.6-55.6 17.9-80.6 33.4-3.9 2.4-5.3 7.3-3.5 11.7 8.6 20.8 3.8 44.2-12.3 59.8-15.5 15-38.4 19.3-58.4 11.1-4.4-1.8-9.4-0.3-11.8 3.5-15.6 25.1-26.9 52.3-33.5 81-1 4.2 1.4 8.4 5.7 10.2 5.3 2.2 10.2 5.3 14.8 9.2 12.3 10.6 19.2 25.9 18.9 42.1-0.4 21.4-13.3 40.6-32.9 49.1-0.2 0.1-0.4 0.2-0.7 0.4-4.4 1.9-6.7 6.3-5.7 10.7 6.6 28.5 17.9 55.6 33.4 80.5 2.4 3.9 7.3 5.3 11.7 3.5 20.8-8.6 44.2-3.8 59.8 12.3 15 15.5 19.3 38.4 11.1 58.4-1.8 4.4-0.3 9.4 3.5 11.8 25.1 15.6 52.3 26.9 81 33.5 4.2 1 8.4-1.4 10.2-5.7 8.6-20.8 28.7-34 51.3-33.7 21.6 0.4 41 13.5 49.3 33.5 1.8 4.4 6.4 6.9 10.8 5.8 28.5-6.6 55.6-17.9 80.6-33.4 3.9-2.4 5.3-7.3 3.5-11.7-8.6-20.8-3.8-44.2 12.3-59.8 15.5-15 38.4-19.3 58.4-11.1 4.4 1.8 9.4 0.3 11.8-3.5 15.6-25.1 26.9-52.3 33.5-81 1-4.2-1.4-8.3-5.6-10.2l5.4-12.9c10.5 4.4 16.3 15.5 13.8 26.2-7 30.2-18.9 58.9-35.3 85.3-6 9.7-18.2 13.5-29 9-14.8-6.1-31.9-2.9-43.3 8.2-11.9 11.5-15.5 29-9.1 44.4 4.4 10.7 0.6 22.9-9.1 28.9-26.2 16.4-54.8 28.2-84.8 35.2-11.1 2.6-22.5-3.3-26.9-14.1-6.2-14.8-20.6-24.6-36.6-24.9h-0.7c-16.5 0-31.1 9.8-37.4 25-3.7 8.9-12.1 14.5-21.2 14.5zM244.8 558.2c-0.1 0-0.1 0 0 0-0.1 0-0.1 0 0 0z" fill="#0F13AE" p-id="3941"></path><path d="M745.2 465.1h77.7v14h-77.7zM607.3 465.1h137.9v14H607.3z" fill="#0F13AE" p-id="3942"></path><path d="M499.9 628.3c-48.5 0-92.1-28.9-110.9-73.6-6.2-14.8-9.4-30.5-9.4-46.7 0-12.8 2.1-25.7 6.2-38.1 16.4-49.2 62.3-82.2 114-82.2 51.8 0 97.6 33 114 82.2l-13.3 4.4c-14.5-43.5-55-72.7-100.8-72.7s-86.3 29.2-100.8 72.7c-3.7 11-5.5 22.3-5.5 33.6 0 14.3 2.8 28.2 8.3 41.2 16.7 39.5 55.1 65.1 98 65.1s81.3-25.5 98-65.1l12.9 5.4c-18.6 44.9-62.1 73.8-110.7 73.8z" fill="#0F13AE" p-id="3943"></path><path d="M501 544.9h153.8v14H501zM504 465.1h137.9v14H504z" fill="#0F13AE" p-id="3944"></path><path d="M620 544.9h153.8v14H620z" fill="#0F13AE" p-id="3945"></path></svg>