<?xml version="1.0" standalone="no"?><!DOCTYPE svg PUBLIC "-//W3C//DTD SVG 1.1//EN" "http://www.w3.org/Graphics/SVG/1.1/DTD/svg11.dtd"><svg t="1739417726893" class="icon" viewBox="0 0 1024 1024" version="1.1" xmlns="http://www.w3.org/2000/svg" p-id="54331" xmlns:xlink="http://www.w3.org/1999/xlink" width="128" height="128"><path d="M780.8 125.6H960l-448 772.8L64 125.6h342.72l105.28 179.2 103.04-179.2z" fill="#41B883" p-id="54332"></path><path d="M64 125.6l448 772.8 448-772.8h-179.2L512 589.28 240.96 125.6z" fill="#41B883" p-id="54333"></path><path d="M240.96 125.6L512 591.52l268.8-465.92h-165.76L512 304.8l-105.28-179.2z" fill="#35495E" p-id="54334"></path><path d="M853.888 870.144l14.592-14.304c67.584 2.176 68.608-0.16 71.584-7.008l18.56-44.576L960 800l-1.504-3.68c-0.8-1.952-3.2-7.776-45.44-47.456v-20.864c48.672-46.24 47.648-48.608 44.8-55.36l-18.464-45.024c-2.784-6.752-3.84-9.408-70.912-7.584l-14.624-14.88a320 320 0 0 0-2.272-65.696l-1.888-4.224-48.256-20.8c-7.104-3.2-9.6-4.352-55.168 44.576l-20.48-0.288c-46.912-49.376-49.12-48.48-56.16-45.696l-44.8 17.888c-7.008 2.816-9.6 3.808-6.784 71.008l-14.496 14.24c-67.52-2.176-68.544 0.192-71.488 7.008l-18.592 44.576L512 672l1.536 3.712c0.8 1.92 3.2 7.68 45.408 47.392v20.8c-48.672 46.24-47.616 48.608-44.8 55.392l18.464 45.088c2.848 6.88 3.84 9.344 70.912 7.616l14.592 14.944a318.944 318.944 0 0 0 2.24 65.6l1.856 4.256 48.576 20.928c7.072 2.912 9.6 3.968 54.944-44.8l20.48 0.256c46.976 49.44 49.376 48.48 56.224 45.76l44.8-17.856c7.168-2.752 9.504-3.712 6.656-70.944z m-192.416-104.384a79.008 79.008 0 0 1 46.368-102.4 80.8 80.8 0 0 1 103.872 45.728 78.944 78.944 0 0 1-44.96 101.888 81.728 81.728 0 0 1-105.28-45.216z" fill="#ffdf51" p-id="54335"></path></svg>